<svg id="Layer_2" height="512" viewBox="0 0 128 128" width="512" xmlns="http://www.w3.org/2000/svg" data-name="Layer 2"><path d="m64 79 34.29-16.22a33.722 33.722 0 0 0 -.976-24.948l-9.333-20.95-7.147 11.158-16.834-26.29v14.591a26.062 26.062 0 0 1 -10.332 20.829 27.781 27.781 0 0 1 -14-22.7l-.688-12.72-10.18 40.225a33.736 33.736 0 0 0 1.511 21.092z" fill="#e97424"/><path d="m89.365 91 30.693-14.518a10.941 10.941 0 0 0 5.185-14.451 10.656 10.656 0 0 0 -14.243-5.261l-47 22.23z" fill="#ccba9a"/><path d="m38.635 91-30.693 14.518a10.941 10.941 0 0 0 -5.185 14.451 10.656 10.656 0 0 0 14.243 5.26l47-22.229z" fill="#ccba9a"/><ellipse cx="12.472" cy="115.373" fill="#b59e78" rx="10.72" ry="10.874"/><path d="m120.058 105.518-103.058-48.748a10.655 10.655 0 0 0 -14.243 5.26 10.941 10.941 0 0 0 5.185 14.451l103.058 48.748a10.655 10.655 0 0 0 14.245-5.26 10.941 10.941 0 0 0 -5.187-14.451z" fill="#ccba9a"/><ellipse cx="115.528" cy="115.373" fill="#b59e78" rx="10.72" ry="10.874"/><path d="m64 79 19.929-9.427a33.094 33.094 0 0 0 -.074-20.368l-1.477-4.375-4.565 9.41-8.171-16.84a39.23 39.23 0 0 1 -9.219 15.389l-4.252 4.224-4.624-3.449a33.978 33.978 0 0 1 -7.323-7.581l-1.134 5.917a32.72 32.72 0 0 0 1.589 17.965z" fill="#fcf05a"/><g fill="#271a00"><path d="m120.807 103.936-27.349-12.936 27.348-12.936a12.71 12.71 0 0 0 6.027-16.764 12.439 12.439 0 0 0 -7.087-6.553 12.246 12.246 0 0 0 -9.5.442l-9.2 4.352a35.273 35.273 0 0 0 -2.135-22.418l-9.331-20.954a1.75 1.75 0 0 0 -3.073-.231l-5.673 8.862-15.36-23.994a1.75 1.75 0 0 0 -3.224.944v14.591a24.443 24.443 0 0 1 -8.724 18.709 25.905 25.905 0 0 1 -12.108-20.679l-.691-12.716a1.75 1.75 0 0 0 -3.444-.334l-4.009 15.845a1.75 1.75 0 1 0 3.393.858l1.189-4.7.067 1.237a29.381 29.381 0 0 0 14.884 24.132 1.751 1.751 0 0 0 1.913-.125 27.929 27.929 0 0 0 11.03-22.227v-8.613l13.611 21.256a1.75 1.75 0 0 0 2.947 0l5.4-8.425 8.012 17.986a31.841 31.841 0 0 1 1.157 22.97l-10.338 4.89a34.843 34.843 0 0 0 -1.022-17.759l-1.477-4.375a1.75 1.75 0 0 0 -3.233-.2l-2.99 6.164-6.6-13.6a1.75 1.75 0 0 0 -3.234.207 37.516 37.516 0 0 1 -8.794 14.7l-3.181 3.158-3.415-2.548a32.172 32.172 0 0 1 -6.942-7.192 1.75 1.75 0 0 0 -3.145.684l-1.134 5.919a34.876 34.876 0 0 0 .43 15l-10.118-4.784a32.209 32.209 0 0 1 -1.184-19.379 1.751 1.751 0 0 0 -3.394-.859 35.707 35.707 0 0 0 .251 18.187l-9.606-4.544a12.247 12.247 0 0 0 -9.5-.442 12.439 12.439 0 0 0 -7.084 6.558 12.71 12.71 0 0 0 6.026 16.763l27.35 12.937-27.349 12.936a12.709 12.709 0 0 0 -6.027 16.764q.266.576.581 1.118a12.351 12.351 0 0 0 16 4.993l46.252-21.877 46.249 21.877a12.37 12.37 0 0 0 3.924 1.118 11.9 11.9 0 0 0 1.348.074 12.458 12.458 0 0 0 10.731-6.185q.315-.541.581-1.118a12.716 12.716 0 0 0 -6.026-16.764zm-9.061-45.584a8.778 8.778 0 0 1 6.8-.318 8.923 8.923 0 0 1 3.151 1.974l-28.612 13.535a1.75 1.75 0 1 0 1.5 3.164l29.138-13.783a9.192 9.192 0 0 1 -4.413 11.976l-29.945 14.163-20.607-9.748-.665-.315 30.945-14.637zm-66.937-6.126.415-2.163a34.3 34.3 0 0 0 5.276 4.9l4.625 3.45a1.75 1.75 0 0 0 2.28-.161l4.251-4.225a39.365 39.365 0 0 0 8.172-12.237l6.41 13.21a1.75 1.75 0 0 0 3.15 0l2.7-5.563.11.326a31.3 31.3 0 0 1 .289 18.555l-8.554 4.046-9.933 4.701-4.349-2.057-13.588-6.428a31.019 31.019 0 0 1 -1.254-16.354zm-35.358 71.738a8.966 8.966 0 0 1 -5.1-4.726 9.2 9.2 0 0 1 4.339-12.138 8.783 8.783 0 0 1 6.8-.318 8.971 8.971 0 0 1 5.1 4.727 9.2 9.2 0 0 1 -4.344 12.137 8.838 8.838 0 0 1 -3.371.846 8.606 8.606 0 0 1 -.865 0 8.838 8.838 0 0 1 -2.559-.528zm14.625-4.017a12.721 12.721 0 0 0 -.3-9.9 12.433 12.433 0 0 0 -7.087-6.553c-.075-.028-.151-.045-.227-.071l22.173-10.487 11.157 5.277-15.972 7.555a1.75 1.75 0 1 0 1.5 3.164l18.568-8.783 6.019 2.851zm94.473 4.017a8.77 8.77 0 0 1 -6.8-.318 9.2 9.2 0 0 1 -4.344-12.137 1.75 1.75 0 1 0 -3.179-1.462 12.718 12.718 0 0 0 -.3 9.9l-95.236-45.047a9.192 9.192 0 0 1 -4.409-11.976l29.138 13.783a1.75 1.75 0 0 0 1.5-3.164l-28.619-13.535a8.923 8.923 0 0 1 3.151-1.974 8.781 8.781 0 0 1 6.8.318l56.482 26.716 15.883 7.514 30.694 14.518a9.209 9.209 0 0 1 4.343 12.138 8.966 8.966 0 0 1 -5.104 4.726z"/><path d="m81.417 99.731-19.185-9.075a1.75 1.75 0 0 0 -1.5 3.164l19.189 9.08a1.75 1.75 0 0 0 1.5-3.164z"/><path d="m30.975 33.391a1.771 1.771 0 0 0 .43.054 1.751 1.751 0 0 0 1.7-1.321l.966-3.82a1.75 1.75 0 1 0 -3.394-.858l-.966 3.819a1.751 1.751 0 0 0 1.264 2.126z"/></g></svg>