<svg height="512" viewBox="0 0 512 512" width="512" xmlns="http://www.w3.org/2000/svg"><g id="Filled_outline" data-name="Filled outline"><path d="m480 156-25.97 81.58-68 50.42h-84.06l-68-50.42-1.07-3.35-24.9-78.23 25.97-81.58 68-50.42h84.06l68 50.42z" fill="#92563a"/><path d="m480 156-25.97 81.58-68 50.42h-84.06l-68-50.42-1.07-3.35h62.94l68-50.42 25.98-81.58-24.91-78.23h21.12l68 50.42z" fill="#875036"/><path d="m128 430.62v-30.62l22.4-16.8a24.012 24.012 0 0 0 9.6-19.2v-36l24-16h32l8.14 65.58 56.29-31.06-.43-18.52-25 4.33-4.58-39.51a24.011 24.011 0 0 0 -23.38-21.23l-46.82-1.05-69.39 47.97 9.17 41.49-26.82 36.95 18.63 42.6v.01z" fill="#313b4c"/><rect fill="#fec9a3" height="56.569" rx="28.284" transform="matrix(.788 -.616 .616 .788 -81.502 151.082)" width="67.882" x="144.532" y="165.519"/><path d="m182.642 102.852h33.941v33.941h-33.941z" fill="#fec9a3" transform="matrix(.788 -.616 .616 .788 -31.441 148.4)"/><path d="m252.45 214.94-62.38 48.79-79.24 54.78-10.3-42.28-5.88-24.12a95.994 95.994 0 0 1 34.04-98.28l47.1-36.92 17.39 22.24 3.52 4.49-8.64 6.75-53.75 42.04 17.05 21.8 17.8 22.76 62.39-48.78z" fill="#f35244"/><path d="m238.397 174.149h33.941v33.941h-33.941z" fill="#fec9a3" transform="matrix(.788 -.616 .616 .788 -63.527 197.881)"/><path d="m24 488h464v-256z" fill="#f98500"/><path d="m252.45 214.94-62.38 48.79-79.24 54.78-10.3-42.28a479.252 479.252 0 0 0 50.83-62l17.8 22.76 62.39-48.78z" fill="#e64c3f"/><path d="m369.652 230.426 11.113-8.239-9.53-12.853-8.989 6.666h-39.134v16h41.776a8 8 0 0 0 4.764-1.574z"/><path d="m404.075 204.9a8 8 0 0 0 2.859-4l9.7-30.477-15.246-4.854-8.92 28.016-5.236 3.882 9.53 12.853z"/><path d="m395.92 119.604h16v16.792h-16z" transform="matrix(.953 -.303 .303 .953 -19.796 128.587)"/><path d="m344 248v16h31.457a8 8 0 0 0 4.765-1.574l16.543-12.266-9.53-12.852-14.42 10.692z"/><path d="m438.022 156-18.193 57.141-16.594 12.3 9.53 12.853 18.668-13.842a8 8 0 0 0 2.859-4l19.749-62.029a8.011 8.011 0 0 0 0-4.854l-3.821-12-15.246 4.854z"/><path d="m427.333 122.427 15.246-4.854-8.287-26.029a8 8 0 0 0 -2.859-4l-18.843-13.97-9.529 12.852 16.768 12.433z"/><path d="m368 144h16v16h-16z"/><path d="m328 56h16v16h-16z"/><path d="m256 104h16v16h-16z"/><path d="m288 216h16v16h-16z"/><path d="m492.067 225.111a8 8 0 0 0 -7.932-.115l-21.475 11.848 24.963-78.417a8.011 8.011 0 0 0 0-4.854l-25.97-81.58a7.991 7.991 0 0 0 -2.859-4l-68-50.42a8 8 0 0 0 -4.764-1.573h-84.06a8 8 0 0 0 -4.764 1.574l-68 50.42a7.989 7.989 0 0 0 -2.859 4l-9.384 29.481-8.135-10.4a8 8 0 0 0 -11.228-1.375l-26.737 20.909-47.1 36.92a104.207 104.207 0 0 0 -36.887 106.476l24.536 104.208-24.706 34.038a8 8 0 0 0 -.844 7.931l15.821 35.818-81.548 45a8 8 0 0 0 3.865 15h464a8 8 0 0 0 8-8v-256a8 8 0 0 0 -3.933-6.889zm-268.214-92.546 4.51-3.527a8 8 0 0 0 1.373-11.23l-.839-1.074 11.913-37.426 63.802-47.308h78.776l63.8 47.308 24.412 76.692-24.41 76.692-63.802 47.308h-78.776l-51.847-38.443-9.53 12.852 53.971 40.017a8 8 0 0 0 4.764 1.574h53.47l-67.44 37.208v-5.208a8 8 0 0 0 -9.365-7.883l-16.662 2.883-3.607-31.109a32.145 32.145 0 0 0 -31.185-28.3l-23.423-.412 53.624-41.935 26.737-20.909a8 8 0 0 0 1.373-11.23l-20.908-26.736a8 8 0 0 0 -11.23-1.369l-26.737 20.9-1.583 1.238-8.634-27.138zm18.922 57.014 14.134-11.052 11.051 14.133-14.132 11.052-5.526-7.066zm-41.622-82.349 11.052 14.133-14.133 11.052-5.526-7.066-5.526-7.067zm-.776 51.2.025.079a35.97 35.97 0 0 0 -6.263-2.7l7.36-5.756-1.123 3.528a8.012 8.012 0 0 0 .001 4.845zm-1.469 19.4a20.308 20.308 0 0 1 -3.483 28.474l-8.217 6.426-.7.544a20.284 20.284 0 0 1 -24.991-31.957l8.913-6.97a20.306 20.306 0 0 1 28.478 3.476zm-65.28-17.7 40.794-31.979 8.959 11.457 2.087 2.668-56.083 43.858a8 8 0 0 0 -1.374 11.23l34.848 44.561a8 8 0 0 0 11.23 1.374l56.083-43.858 5.528 7.059 5.526 7.066-55.9 43.714-69.476 48.037-13.429-55.1a88.176 88.176 0 0 1 31.207-90.092zm-7.154 204.57a8.005 8.005 0 0 0 1.338-6.426l-7.978-36.258 62.5-43.211 44.547.784a16.078 16.078 0 0 1 15.593 14.153l4.58 39.51a8 8 0 0 0 9.312 6.962l15.634-2.709v4.531l-41.459 22.873-6.6-53.882a8 8 0 0 0 -7.941-7.027h-32a7.993 7.993 0 0 0 -4.438 1.344l-24 16a8 8 0 0 0 -3.562 6.656v36a16.079 16.079 0 0 1 -6.4 12.8l-22.4 16.8a8 8 0 0 0 -3.2 6.4v25.9l-4.253 2.346-13.39-30.318zm88.969 8.541-79.443 43.829v-13.07l19.2-14.4a32.154 32.154 0 0 0 12.8-25.6v-31.719l18.422-12.281h22.5zm264.557 106.759h-424.939l424.939-234.449z"/><path d="m300.945 356.138h49.11v16h-49.11z" transform="matrix(.876 -.483 .483 .876 -135.412 202.561)"/><path d="m358.863 332.69h18.274v16h-18.274z" transform="matrix(.876 -.483 .483 .876 -118.795 220.175)"/><path d="m251.92 432h66.826v16h-66.826z" transform="matrix(.878 -.479 .479 .878 -175.864 190.376)"/><path d="m396.94 356h50.12v16h-50.12z" transform="matrix(.878 -.479 .479 .878 -122.779 246.543)"/><path d="m345.88 432h100.24v16h-100.24z" transform="matrix(.878 -.479 .479 .878 -162.349 243.373)"/><path d="m214.887 412.363h18.225v16h-18.225z" transform="matrix(.878 -.479 .479 .878 -173.929 158.574)"/><path d="m438.887 299.636h18.225v16h-18.225z" transform="matrix(.878 -.479 .479 .878 -92.607 252.066)"/><path d="m158.887 444.363h18.225v16h-18.225z" transform="matrix(.878 -.479 .479 .878 -196.098 135.679)"/></g></svg>