<svg id="Capa_1" enable-background="new 0 0 511.703 511.703" height="512" viewBox="0 0 511.703 511.703" width="512" xmlns="http://www.w3.org/2000/svg"><g><g><path d="m436.231 474.198c-.286 0-27.337-24.626-29.188-22.775s-93.994 0-93.994 0l-28.602 22.549v.225 20.482c0 5.257 4.262 9.518 9.519 9.518h133.033c5.257 0 9.519-4.261 9.519-9.518v-20.482-.035c-.173.024-.274.036-.287.036z" fill="#62dbfb"/><circle cx="255.352" cy="169.824" fill="#f9f7f8" r="161.84"/><path d="m267.252 282.089 84.23-92.41c21.3-23.38 20.47-59.37-1.9-81.73l-.19-.2c-23.12-23.11-60.6-23.11-83.71 0l-10.57 10.57-10.79-10.74c-23.13-23.03-60.54-23-83.62.09-11.54 11.53-17.34 26.68-17.34 41.86 0 14.39 5.22 28.81 15.73 40.17l85.47 92.47c6.13 6.62 16.61 6.59 22.69-.08z" fill="#fd8087"/><g><path d="m202.596 189.698c-10.51-11.36-15.73-25.78-15.73-40.17 0-15.18 5.8-30.33 17.34-41.86 5.918-5.921 12.781-10.314 20.102-13.202-21.271-8.393-46.413-3.998-63.606 13.202-11.54 11.53-17.34 26.68-17.34 41.86 0 14.39 5.22 28.81 15.73 40.17l85.47 92.47c6.13 6.62 16.61 6.59 22.69-.08l10.298-11.298z" fill="#fe646f"/></g><g id="XMLID_171_"><g><path d="m213.342 444.649-.04.25c-.94-.17-1.9-.25-2.89-.25h-117.81c-.99 0-1.96.08-2.9.25l-.04-.25v-54.14l-59.19-72.24c-5.83-7.1-9.01-16.01-9.01-25.2v-128.6c0-6.69 2.71-12.74 7.09-17.13 4.38-4.38 10.44-7.09 17.13-7.09 12.87 0 23.49 10.07 24.18 22.93l4.77 89.45.16.21c3.53-2.69 7.78-4.05 12.04-4.05 4.47 0 8.95 1.49 12.64 4.52l103.72 84.96c6.43 5.26 10.15 13.13 10.15 21.44z" fill="#ffcebf"/></g><path d="m112.418 388.428c0-10.969-3.799-21.599-10.751-30.084l-48.439-59.119c-5.83-7.1-9.01-16.01-9.01-25.2v-128.6c0-1.77.195-3.493.555-5.154-6.329.234-12.041 2.887-16.221 7.067-4.38 4.39-7.09 10.44-7.09 17.13v128.6c0 9.19 3.18 18.1 9.01 25.2l59.19 72.24v54.14l.04.25c.94-.17 1.91-.25 2.9-.25h19.817v-56.22z" fill="#ffb09e"/><path d="m103.259 458.865-27.787 15.333v21.018c0 4.96 4.021 8.982 8.981 8.982h134.107c4.96 0 8.981-4.021 8.981-8.982v-21.018l-15.753-15.333z" fill="#62dbfb"/><g><path d="m298.648 444.649.04.25c.94-.17 1.9-.25 2.89-.25h117.81c.99 0 1.96.08 2.9.25l.04-.25v-54.14l59.19-72.24c5.83-7.1 9.01-16.01 9.01-25.2v-128.6c0-6.69-2.71-12.74-7.09-17.13-4.38-4.38-10.44-7.09-17.13-7.09-12.87 0-23.49 10.07-24.18 22.93l-4.77 89.45-.16.21c-3.53-2.69-7.78-4.05-12.04-4.05-4.47 0-8.95 1.49-12.64 4.52l-103.72 84.96c-6.43 5.26-10.15 13.13-10.15 21.44z" fill="#ffcebf"/></g><path d="m457.289 246.111c2.334-1.769 3.771-4.476 3.927-7.401l3.516-65.931c.633-11.798 9.626-21.242 21.044-22.722-.713-.963-1.494-1.872-2.338-2.718-4.38-4.38-10.44-7.09-17.13-7.09-12.87 0-23.49 10.07-24.18 22.93l-4.77 89.45-.16.21c-3.53-2.69-7.78-4.05-12.04-4.05-4.47 0-8.95 1.49-12.64 4.52l-103.72 84.96c-6.43 5.26-10.15 13.13-10.15 21.44v84.94l.04.25c.94-.17 1.9-.25 2.89-.25h19.674v-75.34c0-8.31 3.72-16.18 10.15-21.44l103.72-84.96z" fill="#ffb09e"/><g><g id="XMLID_460_"><g fill="#99e6fc"><path d="m436.232 445.779v28.42h-152.07v-28.42c0-8.47 6.16-15.51 14.24-16.88.94-.17 1.9-.25 2.89-.25h117.81c.99 0 1.96.08 2.9.25 8.08 1.37 14.23 8.41 14.23 16.88z"/><path d="m227.542 445.779v28.42h-152.07v-28.42c0-8.47 6.15-15.51 14.23-16.88.94-.17 1.91-.25 2.9-.25h117.81c.99 0 1.95.08 2.89.25 8.08 1.37 14.24 8.41 14.24 16.88z"/></g></g></g></g></g><g><path d="m466.025 132.751c-16.859 0-30.771 13.188-31.67 30.024l-4.217 78.997c-7.769-1.523-16.088.346-22.662 5.729l-3.102 2.541c1.122-2.076 2.216-4.17 3.253-6.297 1.814-3.723.268-8.213-3.456-10.028-3.722-1.813-8.213-.268-10.027 3.456-12.514 25.67-31.879 47.375-56.003 62.766-24.771 15.804-53.471 24.158-82.998 24.158-29.528 0-58.229-8.354-82.999-24.158-24.124-15.392-43.489-37.096-56.003-62.766-1.813-3.723-6.304-5.269-10.027-3.456-3.724 1.815-5.271 6.305-3.455 10.028.695 1.427 1.424 2.834 2.157 4.238l-.589-.482c-6.572-5.385-14.892-7.253-22.661-5.73l-4.218-78.997c-.899-16.836-14.811-30.024-31.67-30.024-17.488 0-31.716 14.228-31.716 31.715v128.605c0 10.892 3.802 21.531 10.706 29.957l17.024 20.775c1.482 1.81 3.635 2.747 5.805 2.746 1.673 0 3.355-.557 4.75-1.699 3.204-2.625 3.673-7.351 1.047-10.555l-17.024-20.774c-4.712-5.751-7.308-13.014-7.308-20.449v-128.605c0-9.217 7.499-16.715 16.716-16.715 8.886 0 16.218 6.951 16.691 15.824l4.604 86.229c-10.237 10.735-10.091 27.791.454 38.337l46.984 46.984c2.93 2.929 7.678 2.929 10.607 0s2.929-7.678 0-10.606l-46.984-46.984c-4.853-4.853-4.853-12.749 0-17.601 4.543-4.542 11.716-4.898 16.687-.828l103.72 84.963c4.705 3.854 7.403 9.553 7.403 15.636v61.448h-108.683v-30.645c0-1.733-.601-3.413-1.699-4.754l-21.905-26.731c-2.626-3.205-7.351-3.671-10.555-1.047-3.204 2.625-3.673 7.351-1.047 10.555l20.206 24.658v30.291c-8.377 3.936-14.193 12.45-14.193 22.302v58.422c0 4.142 3.357 7.5 7.5 7.5s7.5-3.358 7.5-7.5v-22.5h137.069v22.5c0 4.142 3.357 7.5 7.5 7.5s7.5-3.358 7.5-7.5v-58.422c0-9.852-5.816-18.367-14.193-22.302v-63.774c0-10.596-4.701-20.524-12.897-27.239l-.075-.061c15.254 4.419 31.151 6.694 47.271 6.694 16.923 0 33.593-2.526 49.538-7.389l-.924.757c-8.196 6.715-12.897 16.643-12.897 27.239v63.775c-8.377 3.936-14.193 12.45-14.193 22.302v58.422c0 4.142 3.357 7.5 7.5 7.5s7.5-3.358 7.5-7.5v-22.5h137.069v22.5c0 4.142 3.357 7.5 7.5 7.5s7.5-3.358 7.5-7.5v-58.422c0-9.852-5.816-18.366-14.193-22.302v-30.292l57.493-70.161c6.904-8.425 10.706-19.064 10.706-29.956v-128.607c-.001-17.487-14.228-31.715-31.717-31.715zm-383.057 333.952v-20.922c0-5.31 4.319-9.629 9.629-9.629h117.813c5.309 0 9.628 4.319 9.628 9.629v20.922zm399.773-173.633c0 7.436-2.596 14.698-7.308 20.449l-59.192 72.234c-1.099 1.341-1.699 3.021-1.699 4.754v30.645h-15.104c-4.143 0-7.5 3.358-7.5 7.5s3.357 7.5 7.5 7.5h19.669c5.31 0 9.629 4.319 9.629 9.629v20.922h-137.07v-20.922c0-5.31 4.319-9.629 9.629-9.629h66.18c4.143 0 7.5-3.358 7.5-7.5s-3.357-7.5-7.5-7.5h-61.615v-61.448c0-6.083 2.698-11.782 7.403-15.636l103.72-84.963c4.971-4.071 12.145-3.715 16.687.828 4.853 4.853 4.853 12.749 0 17.601l-46.984 46.984c-2.929 2.929-2.929 7.678 0 10.606 2.93 2.929 7.678 2.929 10.607 0l46.984-46.984c10.544-10.545 10.69-27.601.454-38.336l4.603-86.23c.474-8.873 7.806-15.824 16.691-15.824 9.217 0 16.716 7.498 16.716 16.715z"/><path d="m307.396 226.907c-2.79 3.062-2.57 7.805.491 10.595 3.06 2.79 7.804 2.571 10.595-.491l38.539-42.285c24.051-26.389 23.113-66.836-2.133-92.083l-.197-.197c-26.004-26.003-68.313-26.002-94.317 0l-5.277 5.278-5.481-5.458c-26.001-25.897-68.268-25.855-94.22.096-25.425 25.425-26.222 66.024-1.815 92.428l85.472 92.466c4.325 4.678 10.451 7.357 16.82 7.356h.079c6.397-.022 12.538-2.747 16.848-7.475l23.854-26.173c2.79-3.062 2.57-7.805-.491-10.596-3.061-2.789-7.805-2.57-10.595.491l-23.854 26.173c-1.509 1.656-3.574 2.572-5.814 2.58-2.255.008-4.311-.894-5.831-2.539l-85.472-92.465c-18.918-20.465-18.3-51.933 1.407-71.64 20.111-20.114 52.872-20.146 73.028-.074l10.784 10.74c2.93 2.919 7.67 2.914 10.596-.011l10.57-10.57c20.153-20.153 52.947-20.154 73.103 0l.197.197c19.568 19.568 20.295 50.918 1.654 71.372z"/><path d="m122.243 76.518c3.277 2.531 7.988 1.928 10.521-1.351 29.535-38.237 74.14-60.167 122.379-60.167s92.843 21.93 122.378 60.167c1.478 1.914 3.697 2.916 5.941 2.916 1.601 0 3.214-.511 4.579-1.565 3.278-2.532 3.883-7.242 1.351-10.52-32.398-41.943-81.329-65.998-134.249-65.998-52.921 0-101.854 24.055-134.25 65.998-2.533 3.277-1.928 7.987 1.35 10.52z"/><path d="m96.141 208.469c.479 0 .966-.046 1.454-.142 4.064-.799 6.712-4.742 5.913-8.806-1.934-9.837-2.914-19.921-2.914-29.973 0-19.588 3.613-38.671 10.738-56.721 1.521-3.853-.369-8.209-4.222-9.73-3.85-1.519-8.208.369-9.729 4.222-7.821 19.811-11.787 40.747-11.787 62.229 0 11.02 1.075 22.078 3.195 32.865.703 3.577 3.839 6.056 7.352 6.056z"/><path d="m409.69 169.549c0 10.051-.98 20.135-2.914 29.973-.799 4.064 1.849 8.007 5.913 8.806.488.096.975.142 1.454.142 3.512 0 6.648-2.479 7.352-6.055 2.12-10.788 3.195-21.845 3.195-32.865 0-21.481-3.966-42.418-11.787-62.229-1.521-3.853-5.879-5.745-9.729-4.222-3.853 1.521-5.743 5.877-4.222 9.73 7.125 18.048 10.738 37.132 10.738 56.72z"/></g></g></svg>