<svg width="1440" height="3988" viewBox="0 0 1440 3988" fill="none" xmlns="http://www.w3.org/2000/svg">
<path d="M1485.24 258.216C1613.79 355.328 1457.25 655.511 1538.17 820.847C1620.07 985.922 1788.05 1118.9 1799.07 1277.17C1810.09 1435.44 1755.43 1594.54 1656.4 1670.09C1557.05 1744.43 1412.37 1735.48 1290.43 1733.33C1168.81 1732.38 1057.86 1944.98 939.859 1926.29C756.138 1923.93 652.173 1708.15 645.359 1551.48C640.19 1432.63 780.124 1203.25 766.541 1027.61C752.957 851.966 552.624 673.767 559.374 506.301C581.125 236.068 792.937 183.182 942.294 139.293C1091.33 94.2 1357.99 162.045 1485.24 258.216Z" fill="#1E1B33"/>
<path d="M986.633 3926.36C751.001 4027.5 691.043 3751.73 548.019 3797.21C404.981 3844.02 267.7 4011.94 145.153 3970.67C22.6063 3929.4 -86.3712 3804 -122.317 3651.2C-157.28 3498.4 -119.199 3316.86 -91.2015 3161.98C-64.1872 3007.09 -201.608 2791.14 -161.909 2647.06C-120.392 2413.4 65.9135 2356.14 186.334 2402.22C277.684 2437.17 421.589 2695.98 557.878 2740.05C694.167 2784.12 746.996 2563.28 998.463 2657.89C1339 2786 1319.66 3079.32 1292.5 3283.5C1264.5 3494 1136.77 3861.91 986.633 3926.36Z" fill="#1E1B33"/>
</svg>
