<svg width="101" height="57" viewBox="0 0 101 57" fill="none" xmlns="http://www.w3.org/2000/svg">
<g style="mix-blend-mode:multiply">
<path d="M30.23 56.024C33.43 56.024 36.4913 55.48 39.414 54.392C42.3367 53.304 44.9393 51.7893 47.222 49.848C49.5047 47.8853 51.2967 45.6027 52.598 43C53.9207 40.3973 54.582 37.5813 54.582 34.552V25.336H30.198V34.872H42.006V35.256C42.006 36.984 41.494 38.5627 40.47 39.992C39.446 41.4213 38.0913 42.5627 36.406 43.416C34.742 44.248 32.9073 44.664 30.902 44.664C28.4487 44.664 26.23 43.992 24.246 42.648C22.262 41.2827 20.694 39.352 19.542 36.856C18.39 34.36 17.814 31.416 17.814 28.024C17.814 24.9093 18.326 22.168 19.35 19.8C20.3953 17.432 21.9313 15.5867 23.958 14.264C25.9847 12.92 28.4593 12.248 31.382 12.248C33.622 12.248 35.9793 12.6533 38.454 13.464C40.95 14.2533 43.1047 15.4053 44.918 16.92L50.646 7.352C47.9153 5.304 44.8007 3.77866 41.302 2.776C37.8033 1.752 34.4327 1.24 31.19 1.24C27.158 1.24 23.4993 1.95466 20.214 3.384C16.9287 4.792 14.1127 6.75467 11.766 9.272C9.41933 11.768 7.61667 14.6693 6.358 17.976C5.09933 21.2613 4.47 24.792 4.47 28.568C4.47 32.472 5.12067 36.0987 6.422 39.448C7.74467 42.776 9.57933 45.6773 11.926 48.152C14.2727 50.6267 17.0033 52.5573 20.118 53.944C23.254 55.3307 26.6247 56.024 30.23 56.024Z" fill="#69E2BC"/>
</g>
<g style="mix-blend-mode:multiply">
<path d="M58.9003 55H79.1243C82.6443 55 85.6949 54.4027 88.2763 53.208C90.8789 51.992 92.8843 50.264 94.2923 48.024C95.7216 45.7627 96.4363 43.064 96.4363 39.928C96.4363 36.3227 95.4763 33.4107 93.5563 31.192C91.6363 28.9733 88.8629 27.5653 85.2363 26.968C89.5883 24.6427 91.7643 20.8027 91.7643 15.448C91.7643 11.0107 90.3136 7.69333 87.4123 5.496C84.5323 3.29866 80.5643 2.2 75.5083 2.2H58.9003V55ZM71.2523 22.712V11.704H72.5323C77.3963 11.704 79.8283 13.5067 79.8283 17.112C79.8283 20.8453 77.3963 22.712 72.5323 22.712H71.2523ZM71.2523 45.464V33.336H74.7723C77.6096 33.336 79.7643 33.8693 81.2363 34.936C82.7083 36.0027 83.4443 37.5387 83.4443 39.544C83.4443 43.4907 80.5536 45.464 74.7723 45.464H71.2523Z" fill="#6159A1"/>
</g>
</svg>
