<svg width="73" height="73" viewBox="0 0 73 73" fill="none" xmlns="http://www.w3.org/2000/svg">
<path d="M67.7352 0H5.26481C2.35699 0 0 2.35699 0 5.26481V67.7352C0 70.643 2.35699 73 5.26481 73H67.7352C70.643 73 73 70.643 73 67.7352V5.26481C73 2.35699 70.643 0 67.7352 0V0ZM25.8935 55.1777H17.0041V28.4338H25.8935V55.1777ZM21.4491 24.7819H21.3912C18.4082 24.7819 16.4789 22.7284 16.4789 20.162C16.4789 17.5377 18.4672 15.541 21.5081 15.541C24.5491 15.541 26.4204 17.5377 26.4783 20.162C26.4783 22.7284 24.5491 24.7819 21.4491 24.7819ZM57.9469 55.1777H49.0586V40.8704C49.0586 37.2747 47.7715 34.8225 44.5551 34.8225C42.0995 34.8225 40.637 36.4766 39.9943 38.0734C39.7592 38.6448 39.7019 39.4435 39.7019 40.2427V55.1777H30.813C30.813 55.1777 30.9294 30.9428 30.813 28.4338H39.7019V32.2204C40.8832 30.3981 42.9968 27.8061 47.713 27.8061C53.5615 27.8061 57.9469 31.6284 57.9469 39.8428V55.1777Z" fill="white"/>
</svg>
