<svg width="125" height="85" viewBox="0 0 125 85" fill="none" xmlns="http://www.w3.org/2000/svg">
<path d="M9 57.5C22.5 37 35.6584 29.0657 46.3333 17.1795C46.9641 16.4771 57.4832 6.44771 58.7407 9.61757C59.0267 10.3383 58.8724 11.7141 58.8333 12.4533C58.5288 18.2101 56.0338 23.8767 53.9722 29.0212C49.101 41.1768 42.593 52.9551 39.3426 65.8591C38.7924 68.0435 37.834 73.9071 39.7593 75.4953C40.9565 76.4829 43.063 75.8105 44.25 75.259C46.3321 74.2915 47.4742 73.2818 49.2963 71.5831C54.8532 66.4024 59.8706 60.3746 64.8518 54.5163C73.733 44.0713 82.3563 33.3513 91.3796 23.0609C95.0007 18.9315 98.6458 14.6549 103.116 11.6918C104.284 10.9176 109.362 7.57787 110.407 10.4053C111.044 12.1268 110.93 14.3134 110.546 16.0767C109.258 21.9953 106.237 27.5849 103.856 32.9859C101.049 39.3556 96.8264 46.4989 95.5926 53.6236C95.063 56.682 100.718 53.9012 102.097 53.6498C104.275 53.2529 125.5 49.5 110.546 69.5" stroke="#2A96FB" stroke-width="17" stroke-linecap="round"/>
<path d="M48.414 63.392L47.0185 59.6433L48.414 63.392ZM56.222 58.848L58.8134 61.8951L58.8216 61.8881L58.8298 61.881L56.222 58.848ZM61.598 52L58.0321 50.1878L58.0261 50.1995L58.0203 50.2111L61.598 52ZM63.582 34.336H67.582V30.336H63.582V34.336ZM39.198 34.336V30.336H35.198V34.336H39.198ZM39.198 43.872H35.198V47.872H39.198V43.872ZM51.006 43.872H55.006V39.872H51.006V43.872ZM45.406 52.416L47.1949 55.9937L47.2039 55.9892L47.2129 55.9846L45.406 52.416ZM33.246 51.648L30.9784 54.9431L30.9905 54.9515L31.0026 54.9597L33.246 51.648ZM28.542 45.856L32.1738 44.1798V44.1798L28.542 45.856ZM28.35 28.8L24.6907 27.1846L24.6846 27.1985L24.6786 27.2124L28.35 28.8ZM32.958 23.264L35.1441 26.6137L35.1565 26.6057L35.1687 26.5976L32.958 23.264ZM47.454 22.464L46.2088 26.2652L46.2283 26.2716L46.2479 26.2778L47.454 22.464ZM53.918 25.92L51.3537 28.9899L54.9459 31.9904L57.35 27.9746L53.918 25.92ZM59.646 16.352L63.078 18.4066L64.9292 15.3144L62.046 13.152L59.646 16.352ZM50.302 11.776L49.1784 15.6149L49.1892 15.6181L49.2 15.6212L50.302 11.776ZM29.214 12.384L30.7897 16.0606L30.7997 16.0563L30.8098 16.0519L29.214 12.384ZM20.766 18.272L23.6803 21.0119L23.6861 21.0057L23.6919 20.9995L20.766 18.272ZM15.358 26.976L19.0933 28.407L19.0963 28.399L15.358 26.976ZM15.422 48.448L11.6935 49.8966L11.6991 49.911L11.7048 49.9253L15.422 48.448ZM20.926 57.152L23.8285 54.3996L20.926 57.152ZM29.118 62.944L27.4911 66.5982L27.5004 66.6023L29.118 62.944ZM39.23 69.024C42.8938 69.024 46.4286 68.3992 49.8095 67.1407L47.0185 59.6433C44.554 60.5608 41.9662 61.024 39.23 61.024V69.024ZM49.8095 67.1407C53.1506 65.8969 56.1617 64.1503 58.8134 61.8951L53.6306 55.8009C51.717 57.4284 49.5227 58.7111 47.0185 59.6433L49.8095 67.1407ZM58.8298 61.881C61.501 59.5843 63.6286 56.883 65.1757 53.7889L58.0203 50.2111C56.9647 52.3223 55.5084 54.1863 53.6142 55.815L58.8298 61.881ZM65.1639 53.8122C66.7828 50.6266 67.582 47.1867 67.582 43.552H59.582C59.582 45.976 59.0585 48.168 58.0321 50.1878L65.1639 53.8122ZM67.582 43.552V34.336H59.582V43.552H67.582ZM63.582 30.336H39.198V38.336H63.582V30.336ZM35.198 34.336V43.872H43.198V34.336H35.198ZM39.198 47.872H51.006V39.872H39.198V47.872ZM47.006 43.872V44.256H55.006V43.872H47.006ZM47.006 44.256C47.006 45.1328 46.7648 45.8996 46.2183 46.6625L52.7217 51.3215C54.2232 49.2257 55.006 46.8352 55.006 44.256H47.006ZM46.2183 46.6625C45.5968 47.53 44.754 48.2626 43.5991 48.8474L47.2129 55.9846C49.4287 54.8627 51.2952 53.3126 52.7217 51.3215L46.2183 46.6625ZM43.6171 48.8383C42.5511 49.3713 41.3358 49.664 39.902 49.664V57.664C42.4789 57.664 44.9329 57.1247 47.1949 55.9937L43.6171 48.8383ZM39.902 49.664C38.2282 49.664 36.7947 49.2206 35.4894 48.3363L31.0026 54.9597C33.6653 56.7634 36.6691 57.664 39.902 57.664V49.664ZM35.5136 48.3529C34.2013 47.4498 33.0681 46.1174 32.1738 44.1798L24.9102 47.5322C26.3199 50.5866 28.3227 53.1155 30.9784 54.9431L35.5136 48.3529ZM32.1738 44.1798C31.3142 42.3173 30.814 39.9693 30.814 37.024H22.814C22.814 40.8627 23.4658 44.4027 24.9102 47.5322L32.1738 44.1798ZM30.814 37.024C30.814 34.3446 31.2542 32.1618 32.0214 30.3876L24.6786 27.2124C23.3978 30.1742 22.814 33.474 22.814 37.024H30.814ZM32.0093 30.4154C32.7646 28.7043 33.8118 27.4833 35.1441 26.6137L30.7719 19.9143C28.0509 21.69 26.026 24.1597 24.6907 27.1846L32.0093 30.4154ZM35.1687 26.5976C36.4176 25.7693 38.0848 25.248 40.382 25.248V17.248C36.8339 17.248 33.5517 18.0706 30.7473 19.9304L35.1687 26.5976ZM40.382 25.248C42.1367 25.248 44.0722 25.5653 46.2088 26.2652L48.6992 18.6628C45.8865 17.7413 43.1073 17.248 40.382 17.248V25.248ZM46.2479 26.2778C48.3008 26.927 49.9814 27.8437 51.3537 28.9899L56.4823 22.8501C54.2279 20.967 51.5992 19.5796 48.6601 18.6502L46.2479 26.2778ZM57.35 27.9746L63.078 18.4066L56.214 14.2974L50.486 23.8654L57.35 27.9746ZM62.046 13.152C58.9003 10.7928 55.3397 9.05871 51.404 7.93079L49.2 15.6212C52.2616 16.4986 54.9303 17.8152 57.246 19.552L62.046 13.152ZM51.4256 7.93705C47.6066 6.81928 43.8568 6.24 40.19 6.24V14.24C43.0085 14.24 46.0001 14.6847 49.1784 15.6149L51.4256 7.93705ZM40.19 6.24C35.6778 6.24 31.4666 7.04182 27.6182 8.7161L30.8098 16.0519C33.5321 14.8675 36.6382 14.24 40.19 14.24V6.24ZM27.6383 8.70742C23.862 10.3258 20.5807 12.6046 17.8401 15.5445L23.6919 20.9995C25.6446 18.9047 27.9953 17.2582 30.7897 16.0606L27.6383 8.70742ZM17.8517 15.5321C15.1352 18.4215 13.0581 21.7741 11.6197 25.553L19.0963 28.399C20.1752 25.5646 21.7035 23.1145 23.6803 21.0119L17.8517 15.5321ZM11.6227 25.545C10.1766 29.3196 9.47 33.3389 9.47 37.568H17.47C17.47 34.2451 18.0221 31.203 19.0933 28.407L11.6227 25.545ZM9.47 37.568C9.47 41.9245 10.1978 46.0469 11.6935 49.8966L19.1505 46.9994C18.0435 44.1504 17.47 41.0195 17.47 37.568H9.47ZM11.7048 49.9253C13.2059 53.7023 15.3093 57.0421 18.0235 59.9044L23.8285 54.3996C21.8494 52.3126 20.2834 49.8497 19.1392 46.9707L11.7048 49.9253ZM18.0235 59.9044C20.7319 62.7605 23.896 64.9976 27.4911 66.5982L30.7449 59.2898C28.1107 58.117 25.8135 56.4929 23.8285 54.3996L18.0235 59.9044ZM27.5004 66.6023C31.172 68.2258 35.0968 69.024 39.23 69.024V61.024C36.1525 61.024 33.336 60.4355 30.7356 59.2857L27.5004 66.6023Z" fill="white"/>
<path d="M74.9003 64H70.9003V68H74.9003V64ZM104.276 62.208L105.956 65.8381L105.963 65.835L105.969 65.832L104.276 62.208ZM110.292 57.024L106.911 54.8868L106.906 54.8953L110.292 57.024ZM109.556 40.192L106.532 42.8095L109.556 40.192ZM101.236 35.968L99.3512 32.44L88.9489 37.9981L100.586 39.9148L101.236 35.968ZM103.412 14.496L100.986 17.6761L100.992 17.6804L100.997 17.6847L103.412 14.496ZM74.9003 11.2V7.2H70.9003V11.2H74.9003ZM87.2523 31.712H83.2523V35.712H87.2523V31.712ZM87.2523 20.704V16.704H83.2523V20.704H87.2523ZM87.2523 54.464H83.2523V58.464H87.2523V54.464ZM87.2523 42.336V38.336H83.2523V42.336H87.2523ZM74.9003 68H95.1243V60H74.9003V68ZM95.1243 68C99.0901 68 102.739 67.3272 105.956 65.8381L102.596 58.5779C100.651 59.4781 98.1984 60 95.1243 60V68ZM105.969 65.832C109.206 64.3197 111.827 62.0993 113.679 59.1527L106.906 54.8953C105.942 56.4287 104.552 57.6643 102.583 58.584L105.969 65.832ZM113.673 59.1612C115.572 56.1568 116.436 52.6881 116.436 48.928H108.436C108.436 51.4399 107.871 53.3685 106.911 54.8868L113.673 59.1612ZM116.436 48.928C116.436 44.59 115.265 40.6762 112.581 37.5745L106.532 42.8095C107.687 44.1452 108.436 46.0553 108.436 48.928H116.436ZM112.581 37.5745C109.907 34.4847 106.196 32.731 101.886 32.0212L100.586 39.9148C103.53 40.3997 105.365 41.462 106.532 42.8095L112.581 37.5745ZM103.121 39.496C105.884 38.0196 108.108 35.9711 109.612 33.316C111.107 30.6787 111.764 27.6698 111.764 24.448H103.764C103.764 26.5809 103.334 28.1693 102.652 29.3719C101.981 30.5569 100.94 31.591 99.3512 32.44L103.121 39.496ZM111.764 24.448C111.764 19.0647 109.948 14.4284 105.827 11.3073L100.997 17.6847C102.679 18.9583 103.764 20.9566 103.764 24.448H111.764ZM105.839 11.3159C102.033 8.41214 97.1014 7.2 91.5083 7.2V15.2C96.0271 15.2 99.0318 16.1852 100.986 17.6761L105.839 11.3159ZM91.5083 7.2H74.9003V15.2H91.5083V7.2ZM70.9003 11.2V64H78.9003V11.2H70.9003ZM91.2523 31.712V20.704H83.2523V31.712H91.2523ZM87.2523 24.704H88.5323V16.704H87.2523V24.704ZM88.5323 24.704C90.5869 24.704 91.401 25.1054 91.6223 25.2695C91.6928 25.3217 91.7069 25.3481 91.7242 25.3866C91.7517 25.4478 91.8283 25.6567 91.8283 26.112H99.8283C99.8283 23.3156 98.8212 20.6474 96.3862 18.8425C94.1755 17.2039 91.3416 16.704 88.5323 16.704V24.704ZM91.8283 26.112C91.8283 26.6163 91.746 26.8703 91.7033 26.9686C91.671 27.0431 91.6407 27.0837 91.5688 27.1389C91.3556 27.3025 90.5649 27.712 88.5323 27.712V35.712C91.3636 35.712 94.2209 35.1881 96.4397 33.4851C98.8589 31.6282 99.8283 28.9204 99.8283 26.112H91.8283ZM88.5323 27.712H87.2523V35.712H88.5323V27.712ZM91.2523 54.464V42.336H83.2523V54.464H91.2523ZM87.2523 46.336H90.7723V38.336H87.2523V46.336ZM90.7723 46.336C93.2071 46.336 94.3862 46.8105 94.8892 47.175L99.5834 40.697C97.1423 38.9281 94.0121 38.336 90.7723 38.336V46.336ZM94.8892 47.175C95.2046 47.4036 95.4443 47.6674 95.4443 48.544H103.444C103.444 45.41 102.212 42.6018 99.5834 40.697L94.8892 47.175ZM95.4443 48.544C95.4443 49.0415 95.3545 49.2833 95.3079 49.3789C95.2702 49.4561 95.2076 49.553 95.021 49.6804C94.5463 50.0044 93.3325 50.464 90.7723 50.464V58.464C93.9933 58.464 97.1155 57.9369 99.5315 56.2876C102.222 54.4512 103.444 51.6425 103.444 48.544H95.4443ZM90.7723 50.464H87.2523V58.464H90.7723V50.464Z" fill="white"/>
</svg>
